<?xml version="1.0" standalone="no"?>
<!DOCTYPE svg PUBLIC "-//W3C//DTD SVG 20010904//EN"
 "http://www.w3.org/TR/2001/REC-SVG-20010904/DTD/svg10.dtd">
<svg version="1.0" xmlns="http://www.w3.org/2000/svg"
 width="872.000000pt" height="871.000000pt" viewBox="0 0 872.000000 871.000000"
 preserveAspectRatio="xMidYMid meet">
<metadata>
Created by potrace 1.15, written by Peter Selinger 2001-2017
</metadata>
<g transform="translate(0.000000,871.000000) scale(0.100000,-0.100000)"
fill="#000000" stroke="none">
<path d="M3985 8699 c-1507 -138 -2808 -1010 -3501 -2344 -488 -941 -613
-2059 -344 -3098 427 -1652 1794 -2910 3475 -3197 283 -48 382 -55 755 -55
369 0 490 10 770 61 868 157 1665 573 2291 1196 971 966 1428 2311 1248 3673
-96 731 -374 1415 -817 2015 -714 966 -1783 1585 -2997 1736 -153 19 -724 28
-880 13z m767 -565 c1346 -133 2530 -992 3082 -2234 390 -879 431 -1880 115
-2795 -396 -1149 -1339 -2050 -2506 -2395 -576 -170 -1212 -201 -1803 -89
-1408 269 -2549 1317 -2940 2699 -105 373 -147 721 -137 1135 7 263 27 450 76
686 226 1084 927 2025 1906 2556 673 365 1428 515 2207 437z"/>
<path d="M4155 8000 c-1932 -111 -3445 -1712 -3445 -3646 0 -832 277 -1620
801 -2279 190 -240 489 -521 747 -704 213 -150 533 -323 772 -416 1034 -404
2192 -315 3156 241 441 254 850 627 1146 1044 265 374 457 789 567 1227 76
300 106 550 106 888 0 273 -10 386 -50 623 -195 1129 -918 2108 -1945 2631
-564 288 -1225 427 -1855 391z m-900 -2167 c145 -76 212 -297 156 -516 -28
-108 -76 -197 -106 -197 -9 0 -9 18 2 73 34 179 42 254 32 323 -19 134 -89
238 -179 265 -56 17 -161 0 -248 -41 -205 -95 -388 -310 -552 -645 -143 -292
-234 -593 -292 -960 -27 -172 -32 -560 -9 -685 47 -259 152 -434 300 -503 77
-36 132 -43 232 -28 103 16 186 59 276 144 167 159 286 407 329 692 14 88 14
258 1 271 -2 3 -38 -11 -79 -30 -101 -46 -254 -94 -344 -108 -65 -10 -77 -10
-90 4 -12 12 -13 20 -6 35 8 14 34 23 99 35 162 31 374 108 478 174 50 31 170
94 180 94 13 0 3 -22 -25 -53 -24 -28 -77 -66 -168 -123 -2 -1 2 -40 9 -87 21
-149 -15 -380 -90 -573 -53 -137 -126 -249 -231 -355 -107 -107 -180 -152
-287 -174 -436 -93 -683 231 -683 896 0 445 155 1073 357 1449 179 332 424
571 654 635 79 22 231 15 284 -12z m615 -1492 c68 -50 102 -207 81 -373 -33
-267 -127 -458 -247 -504 -150 -57 -250 134 -223 423 14 153 64 268 120 280
18 3 29 12 29 22 0 27 46 115 72 139 49 44 118 50 168 13z m1422 -11 c31 -33
51 -96 46 -143 -5 -48 -31 -41 -40 10 -8 49 -32 90 -58 98 -82 26 -220 -251
-335 -669 -19 -71 -40 -135 -46 -142 -15 -18 -43 -18 -59 1 -12 15 -10 183 5
415 l5 75 -24 -81 c-60 -195 -134 -338 -183 -350 -39 -10 -72 12 -96 64 -17
38 -22 71 -25 171 l-4 125 -37 -100 c-93 -249 -169 -346 -261 -328 -38 8 -84
62 -105 122 -54 161 7 702 80 702 34 0 36 -45 9 -218 -43 -272 -38 -493 13
-509 24 -8 84 61 126 146 24 48 83 205 132 350 55 167 93 265 103 268 9 4 24
-4 39 -22 20 -22 23 -35 18 -59 -23 -116 -46 -331 -47 -451 -1 -140 9 -191 35
-183 7 2 33 45 58 96 44 86 62 138 153 432 19 63 42 124 50 135 14 19 15 19
33 2 16 -16 18 -37 18 -208 0 -105 3 -183 7 -172 51 131 106 253 136 302 93
152 185 197 254 121z m448 11 c67 -49 101 -200 81 -366 -30 -264 -121 -455
-240 -508 -119 -52 -209 46 -230 251 -21 205 39 433 120 449 18 3 29 12 29 22
0 27 46 115 72 139 49 44 118 50 168 13z m720 -21 c25 -25 25 -19 -1 -176 -24
-153 -36 -455 -20 -496 6 -16 15 -28 20 -28 34 0 151 169 232 333 78 160 95
136 34 -51 -61 -189 -181 -362 -250 -362 -74 0 -105 63 -114 234 -6 118 -7
120 -20 81 -52 -154 -147 -319 -205 -354 -100 -62 -183 15 -208 191 -9 63 -9
117 1 232 23 286 63 410 116 366 20 -17 19 -40 -11 -231 -41 -260 -36 -465 12
-483 8 -3 31 10 55 31 59 53 134 215 224 483 41 124 77 231 80 238 7 18 32 15
55 -8z"/>
<path d="M3758 4275 c-71 -39 -105 -204 -74 -364 8 -47 14 -86 12 -88 -2 -2
-11 3 -20 12 -21 21 -48 114 -55 190 l-6 60 -30 -89 c-25 -76 -29 -105 -29
-195 -1 -233 73 -317 178 -200 137 151 201 520 113 651 -26 38 -50 44 -89 23z"/>
<path d="M5628 4275 c-71 -39 -105 -204 -74 -364 8 -47 14 -86 12 -88 -2 -2
-11 3 -20 12 -21 21 -48 114 -55 190 l-6 60 -30 -89 c-25 -76 -29 -105 -29
-195 -1 -233 73 -317 178 -200 137 151 201 520 113 651 -26 38 -50 44 -89 23z"/>
</g>
</svg>
