<svg id="Capa_1" data-name="Capa 1" xmlns="http://www.w3.org/2000/svg" viewBox="0 0 454.18 454.18"><defs><style>.cls-1{fill:#1c4a47;}.cls-2{fill:none;stroke:#fff;stroke-miterlimit:10;stroke-width:5px;}.cls-3{fill:#c39d4b;}</style></defs><title>logo</title><circle class="cls-1" cx="227.09" cy="227.09" r="227.09"/><circle class="cls-2" cx="227.09" cy="227.09" r="201.11"/><path class="cls-3" d="M488.72,421.9a4,4,0,0,1-1.87-.4,1.24,1.24,0,0,1-.76-1.12,1.49,1.49,0,0,1,.81-1.2,4.37,4.37,0,0,1,1.82-.69q4.83-.36,9.93-1.23t10.14-2q5-1.16,9.93-2.6t9.33-3H528l2.92-1.38c1-.44,2-.92,3.28-1.45s2.49-1,3.73-1.49,2.43-.88,3.53-1.26,2-.65,2.58-.8c0,.53-.52,1.2-1.57,2a30.53,30.53,0,0,1-3.68,2.39q-2.12,1.2-4.23,2.21c-1.42.68-2.53,1.19-3.33,1.52l-2.83,1.16a22.92,22.92,0,0,1,1.47,5.25,38,38,0,0,1,.35,5.18,54.84,54.84,0,0,1-3.38,17,60.61,60.61,0,0,1-8.52,15.65,62.84,62.84,0,0,1-13,12.78,54.55,54.55,0,0,1-16.49,8.3,60.23,60.23,0,0,1-9,1.55q-4.79.48-9.23.55A43,43,0,0,1,452.05,474a36.58,36.58,0,0,1-13.26-12.82,48.72,48.72,0,0,1-6-15.9,94,94,0,0,1-1.41-16.34v-4.78a12.12,12.12,0,0,1,.1-1.59,158.89,158.89,0,0,1,2.92-18.07,157.1,157.1,0,0,1,5.2-18.22,164.49,164.49,0,0,1,7.51-17.9,136.73,136.73,0,0,1,10-17.09,134.45,134.45,0,0,1,11.39-13.51,93.61,93.61,0,0,1,14-12A77,77,0,0,1,499,317.08a61,61,0,0,1,19-3.92c2,0,3.92.09,5.7.26a26.58,26.58,0,0,1,5.2,1,21.08,21.08,0,0,1,9.07,5.47,28.23,28.23,0,0,1,4.34,7.14,20.92,20.92,0,0,1,1.41,7.86V336a10.75,10.75,0,0,1-.35,2.25c-.24,1-.55,2.15-1,3.4a35.82,35.82,0,0,1-1.51,3.91,29.2,29.2,0,0,1-2,3.77,15.54,15.54,0,0,1-2.42,3,5.63,5.63,0,0,1-2.72,1.52c.06-.29.23-.88.5-1.77s.54-1.91.81-3,.57-2.36.91-3.66.64-2.55.91-3.73.48-2.25.65-3.19a13,13,0,0,0,.25-2,23.11,23.11,0,0,0-1.26-7.72,18.78,18.78,0,0,0-3.58-6.23,16.71,16.71,0,0,0-5.8-4.2,18.88,18.88,0,0,0-7.81-1.56,50,50,0,0,0-8.73.8,45.81,45.81,0,0,0-8.12,2.17A72.08,72.08,0,0,0,483,330.84a101.18,101.18,0,0,0-16.29,16.41,129.11,129.11,0,0,0-13,19.88,152.73,152.73,0,0,0-9.43,21.55,149.27,149.27,0,0,0-5.75,21.41,106.06,106.06,0,0,0-2,19.41A80,80,0,0,0,438,444.86a50,50,0,0,0,5.8,15.07,32.1,32.1,0,0,0,11.4,11.41,36.71,36.71,0,0,0,15.83,4.6q3.84-.07,8.22-.47a53.84,53.84,0,0,0,7.92-1.27,49.19,49.19,0,0,0,15.64-7.82,60.52,60.52,0,0,0,12.25-12.25,63.39,63.39,0,0,0,8.32-14.95,57.94,57.94,0,0,0,3.83-16c0-.72,0-1.51,0-2.35s-.08-1.73-.15-2.65-.15-1.8-.25-2.64a16.2,16.2,0,0,0-.45-2.36,185.38,185.38,0,0,1-19.62,5.87,116.88,116.88,0,0,1-17.6,2.83Z" transform="translate(-384.91 -168.91)"/><path class="cls-3" d="M564.44,433.93q.42-2.85.68-5.8c.18-2,.26-4,.26-6,0-.78-.07-2-.21-3.59a27.2,27.2,0,0,0-.94-5,17.08,17.08,0,0,0-2.09-4.72,6,6,0,0,0-3.65-2.71A8.29,8.29,0,0,0,553,408.2a14.59,14.59,0,0,0-3.5,5,24.71,24.71,0,0,0-1.83,6.49,45.33,45.33,0,0,0-.52,6.6V428a22.21,22.21,0,0,0,.31,2.31c.21,1.28.45,2.69.73,4.23s.54,3,.78,4.24a12.25,12.25,0,0,0,.58,2.31c-.63-.13-1.25-.77-1.88-1.92a20.74,20.74,0,0,1-1.62-3.94c-.46-1.47-.85-2.9-1.2-4.28a26.7,26.7,0,0,1-.63-3,23.19,23.19,0,0,1-.26-2.71c0-.88,0-1.75,0-2.61a36.45,36.45,0,0,1,.88-8.11,22.1,22.1,0,0,1,2.72-6.84A15.12,15.12,0,0,1,552,403a11.14,11.14,0,0,1,6.32-1.77,8.53,8.53,0,0,1,5.8,2.46,16.8,16.8,0,0,1,3.6,5.56,28.74,28.74,0,0,1,1.88,7.19,55.49,55.49,0,0,1,.53,7.43,57,57,0,0,1-.53,6.74c-.35,2.79-.88,5.8-1.62,9.05a79.81,79.81,0,0,1-2.92,9.89,47.36,47.36,0,0,1-4.44,9.15,27.44,27.44,0,0,1-6.17,6.94,14.79,14.79,0,0,1-8,3.2,9.75,9.75,0,0,1-7-2.85,19.25,19.25,0,0,1-4.23-6.7A35.9,35.9,0,0,1,533,451a58.44,58.44,0,0,1,.21-17.67,47.34,47.34,0,0,1,2.46-9.25c.2-.46.55-1.14,1-2.06s1-1.86,1.67-2.81a14,14,0,0,1,2-2.46,3.19,3.19,0,0,1,2.14-1c.63,0,1,.14,1.1.44a3.57,3.57,0,0,1,.16,1.13,12,12,0,0,1-.84,4c-.56,1.54-1.08,2.9-1.57,4.08l-.31,1a25.63,25.63,0,0,0-2.72,9,77.92,77.92,0,0,0-.62,9.6c0,.52,0,1.31.1,2.36s.21,2.23.42,3.54.48,2.66.83,4a17.82,17.82,0,0,0,1.41,3.78,11.3,11.3,0,0,0,2.09,2.91,4.47,4.47,0,0,0,3,1.28,11.78,11.78,0,0,0,7-3.59,32.48,32.48,0,0,0,5.44-7.43,58.22,58.22,0,0,0,4-9.16,83.2,83.2,0,0,0,2.45-8.66Z" transform="translate(-384.91 -168.91)"/><path class="cls-3" d="M615.55,404.51a1.21,1.21,0,0,1,.57-.59l.78-.49h.74a5.72,5.72,0,0,1,2.19,1.87,4.7,4.7,0,0,1,1,2.85q-1.77,8.76-3,18a143.39,143.39,0,0,0-1.21,18.55c0,1,0,2.3.06,3.74a31.25,31.25,0,0,0,.36,4.18A17,17,0,0,0,618,456c.35.92.83,1.38,1.46,1.38.91,0,1.94-.86,3.08-2.56a48.77,48.77,0,0,0,3.4-6c1.11-2.29,2.14-4.59,3.08-6.88s1.66-4,2.15-5.12a8.43,8.43,0,0,1,.57-2.07q.67-2.07,1.62-5l1.36-4.43c1-3.54,2-6.51,2.77-8.9s1.5-4.33,2.09-5.81a24.58,24.58,0,0,1,1.51-3.25c.42-.69.84-1.06,1.26-1.13a2.53,2.53,0,0,1,1.2,1.08,6.93,6.93,0,0,1,.73,1.78,20.25,20.25,0,0,1,.42,2.06c.1.73.19,1.41.26,2.07l.21,2.85q0,6-.42,11.91T644,439.74a.54.54,0,0,1,.21.05.54.54,0,0,0,.21,0c.63-1.84,1.46-4.07,2.51-6.69s2.21-5.37,3.5-8.22,2.7-5.69,4.23-8.51a60.29,60.29,0,0,1,4.86-7.63,26.34,26.34,0,0,1,5.38-5.46,9.64,9.64,0,0,1,5.75-2.07h.94a8.87,8.87,0,0,1,6.06,4.18,15.23,15.23,0,0,1,2.09,8.12,10.76,10.76,0,0,1-.16,2,1.92,1.92,0,0,1-.68,1.28,1.79,1.79,0,0,1-1.2-1.62,20,20,0,0,0-.26-2.42l-.31-1.57a14.68,14.68,0,0,0-2.14-3.94,4.79,4.79,0,0,0-3.4-1.87q-3,.3-6.17,4a51.1,51.1,0,0,0-6.06,9.25,127.36,127.36,0,0,0-5.59,12.3q-2.67,6.75-4.81,13.29t-3.76,12.2q-1.62,5.67-2.45,9a3.81,3.81,0,0,1-.89,1.52,2.38,2.38,0,0,1-1.83.74,2.31,2.31,0,0,1-2.35-1.28,10.16,10.16,0,0,1-.79-2.46l1.78-37.2a.4.4,0,0,1-.31-.1c-.35,1.44-.84,3.3-1.47,5.56s-1.37,4.68-2.24,7.23-1.85,5.17-2.93,7.83a62.59,62.59,0,0,1-3.45,7.23,30.61,30.61,0,0,1-3.81,5.46,7.48,7.48,0,0,1-4.08,2.61,6.74,6.74,0,0,1-4.7-2.95,17.58,17.58,0,0,1-2.46-5.66,37.26,37.26,0,0,1-1-6.45q-.21-3.24-.21-5.31c0-.59,0-1.15,0-1.67s.06-1,.06-1.48l.1-5.31-.42-.2c-.69,1.84-1.46,3.95-2.3,6.35s-1.79,4.84-2.87,7.33-2.23,4.94-3.45,7.33a48.36,48.36,0,0,1-3.86,6.4,21.2,21.2,0,0,1-4.34,4.53,8,8,0,0,1-4.81,1.72h-.52a6.73,6.73,0,0,1-4.29-1.48A13.62,13.62,0,0,1,582.1,462a23.57,23.57,0,0,1-2.19-4.87,29,29,0,0,1-1.15-4.87l-.31-3.94c-.07-.72-.11-1.47-.11-2.26v-2.26c0-1.51,0-3,.11-4.58s.17-3.07.31-4.58c.07-.92.21-2.26.42-4s.47-3.71.78-5.81.68-4.25,1.1-6.44a55.84,55.84,0,0,1,1.46-6,22.37,22.37,0,0,1,1.83-4.43c.66-1.14,1.41-1.72,2.25-1.72.35.13.69.59,1,1.38a5.58,5.58,0,0,1,.53,2.26,24.57,24.57,0,0,1-.21,3.05c-.14,1.12-.32,2.22-.53,3.3s-.38,2.05-.52,2.9a13.2,13.2,0,0,0-.21,2q-1.16,5.91-2,12.4a103.53,103.53,0,0,0-.84,13.29c0,.92,0,2.15.11,3.69a36.47,36.47,0,0,0,.47,4.57,14.41,14.41,0,0,0,1.15,3.94,2.59,2.59,0,0,0,2.14,1.77,6,6,0,0,0,4-1.62,20.08,20.08,0,0,0,3.5-4,52.92,52.92,0,0,0,3-5.11c.94-1.81,1.76-3.46,2.46-5l.83-1.38h-.1q3.54-9.06,6.95-19.19T615.55,404.51Z" transform="translate(-384.91 -168.91)"/><path class="cls-3" d="M713.05,433.93q.41-2.85.68-5.8t.26-6c0-.78-.07-2-.21-3.59a28.06,28.06,0,0,0-.94-5,17.7,17.7,0,0,0-2.09-4.72,6.08,6.08,0,0,0-3.66-2.71,8.29,8.29,0,0,0-5.54,2.12,14.73,14.73,0,0,0-3.5,5,25.09,25.09,0,0,0-1.83,6.49,45.33,45.33,0,0,0-.52,6.6V428a22.21,22.21,0,0,0,.31,2.31c.21,1.28.46,2.69.73,4.23s.54,3,.79,4.24a11.75,11.75,0,0,0,.57,2.31c-.62-.13-1.25-.77-1.88-1.92a20.74,20.74,0,0,1-1.62-3.94c-.45-1.47-.85-2.9-1.2-4.28a26.7,26.7,0,0,1-.63-3,25.57,25.57,0,0,1-.26-2.71c0-.88,0-1.75,0-2.61a36.45,36.45,0,0,1,.89-8.11,22.34,22.34,0,0,1,2.71-6.84,15.12,15.12,0,0,1,4.5-4.73,11.14,11.14,0,0,1,6.32-1.77,8.51,8.51,0,0,1,5.8,2.46,17,17,0,0,1,3.61,5.56,29.17,29.17,0,0,1,1.88,7.19,55.43,55.43,0,0,1,.52,7.43,56.63,56.63,0,0,1-.52,6.74c-.35,2.79-.89,5.8-1.62,9.05a79.89,79.89,0,0,1-2.93,9.89,47.36,47.36,0,0,1-4.44,9.15,27.25,27.25,0,0,1-6.17,6.94,14.76,14.76,0,0,1-8,3.2,9.73,9.73,0,0,1-7-2.85,19.13,19.13,0,0,1-4.24-6.7,35.9,35.9,0,0,1-2.09-8.31,58.44,58.44,0,0,1,.21-17.67,47.34,47.34,0,0,1,2.46-9.25c.21-.46.56-1.14,1-2.06s1-1.86,1.68-2.81a13.58,13.58,0,0,1,2-2.46,3.19,3.19,0,0,1,2.15-1c.62,0,1,.14,1.09.44a3.3,3.3,0,0,1,.16,1.13,12,12,0,0,1-.84,4q-.84,2.31-1.56,4.08l-.32,1a25.63,25.63,0,0,0-2.71,9,78,78,0,0,0-.63,9.6c0,.52,0,1.31.1,2.36s.21,2.23.42,3.54.49,2.66.84,4a17.82,17.82,0,0,0,1.41,3.78,11.3,11.3,0,0,0,2.09,2.91,4.45,4.45,0,0,0,3,1.28,11.84,11.84,0,0,0,7-3.59,32.75,32.75,0,0,0,5.43-7.43,57.3,57.3,0,0,0,4-9.16,83.46,83.46,0,0,0,2.46-8.66Z" transform="translate(-384.91 -168.91)"/><path class="cls-3" d="M766.13,403.43h1a3.85,3.85,0,0,1,2.25,1.57,4.43,4.43,0,0,1,1.09,2.76.64.64,0,0,1,0,.24,1.29,1.29,0,0,0-.05.44c-.63,3.09-1.2,6.32-1.73,9.7s-1,6.81-1.35,10.28-.67,6.94-.84,10.39-.26,6.74-.26,9.89a24.2,24.2,0,0,0,.31,3.83,13,13,0,0,0,1.57,4.24l.73.68c1.25-.26,2.72-1.26,4.39-3a57,57,0,0,0,5-5.95c1.64-2.23,3.15-4.48,4.55-6.74s2.47-4.05,3.24-5.37c.14-.26.47-1,1-2.11s1.13-2.41,1.83-3.79,1.38-2.67,2-3.89a14,14,0,0,1,1.62-2.51c0,.07,0,.36,0,.89s.05.85.05,1a10.59,10.59,0,0,1-.31,2.27q-.32,1.38-.78,2.85c-.32,1-.65,2-1,3s-.66,1.92-.94,2.71l-.42,1.28a1.11,1.11,0,0,1-.1.44,1.11,1.11,0,0,0-.1.44q-1.15,2.76-3.24,6.74a74.66,74.66,0,0,1-4.65,7.68,38.37,38.37,0,0,1-5.44,6.35,8.52,8.52,0,0,1-5.69,2.66,6.18,6.18,0,0,1-4.76-2.91,18.17,18.17,0,0,1-2.51-6.2,44,44,0,0,1-.94-7.53q-.15-3.93-.15-6.89v-.78a1.41,1.41,0,0,1,.05-.4,1.74,1.74,0,0,0,0-.39l.1-3.74a.18.18,0,0,1-.15-.05.25.25,0,0,0-.16-.05c-.7,1.91-1.5,4.05-2.4,6.45s-1.94,4.84-3.09,7.33-2.4,4.92-3.76,7.28a50.15,50.15,0,0,1-4.28,6.35,22.37,22.37,0,0,1-4.76,4.53,9.14,9.14,0,0,1-5.22,1.72,10.13,10.13,0,0,1-5.7-3.3,18.41,18.41,0,0,1-3.34-5.9,30.07,30.07,0,0,1-1.57-7.19q-.36-3.78-.36-7.13c0-1.51,0-3,.1-4.48s.17-3,.31-4.48l.32-3.05c.21-2.29.5-4.92.89-7.87s.85-5.72,1.41-8.32a29.81,29.81,0,0,1,2.09-6.54c.83-1.77,1.81-2.66,2.92-2.66.49,0,1,.39,1.41,1.18a4.81,4.81,0,0,1,.68,2.46,21.77,21.77,0,0,1-.21,2.86c-.14,1.05-.31,2.06-.52,3.05s-.38,1.88-.52,2.7a12.21,12.21,0,0,0-.21,1.82q-1.15,6.11-2,12.65a101.78,101.78,0,0,0-.89,13.63v.69q0,1.38.06,3.54a29,29,0,0,0,.41,4.28,13.25,13.25,0,0,0,1.2,3.74,3.3,3.3,0,0,0,2.3,1.92,6.43,6.43,0,0,0,3.92-1.77,22.91,22.91,0,0,0,3.66-4.08,46.38,46.38,0,0,0,3.19-5.17q1.46-2.76,2.61-4.92a4.83,4.83,0,0,1,.31-.69,7,7,0,0,1,.42-.69q4-9.54,7.42-19.29t6.9-19.58Z" transform="translate(-384.91 -168.91)"/></svg>